<?xml version="1.0" standalone="no"?>
<!DOCTYPE svg PUBLIC "-//W3C//DTD SVG 20010904//EN"
 "http://www.w3.org/TR/2001/REC-SVG-20010904/DTD/svg10.dtd">
<svg version="1.0" xmlns="http://www.w3.org/2000/svg"
 width="1040.000000pt" height="1040.000000pt" viewBox="0 0 1040.000000 1040.000000"
 preserveAspectRatio="xMidYMid meet">
<metadata>
Created by potrace 1.14, written by Peter Selinger 2001-2017
</metadata>
<g transform="translate(0.000000,1040.000000) scale(0.100000,-0.100000)"
fill="#000000" stroke="none">
<path d="M7984 10086 c-28 -22 -66 -60 -84 -84 -29 -38 -33 -50 -33 -104 0
-54 3 -64 27 -85 33 -28 87 -30 146 -7 68 27 89 98 51 172 -10 20 -22 60 -26
89 -4 28 -12 53 -18 56 -7 2 -35 -14 -63 -37z"/>
<path d="M9257 9998 c-8 -99 5 -125 71 -146 42 -14 51 -25 31 -38 -8 -4 -7 -9
2 -14 10 -7 10 -12 -2 -26 -13 -16 -12 -17 8 -12 14 4 24 1 27 -9 9 -23 7 -43
-4 -43 -5 0 -10 7 -10 15 0 21 -20 19 -21 -2 -1 -10 -2 -22 -3 -28 -1 -5 -6
-31 -10 -57 l-8 -48 -27 19 c-29 21 -116 42 -138 34 -9 -4 -13 -14 -10 -27 19
-77 32 -113 45 -128 17 -20 72 -24 103 -8 22 12 24 3 7 -35 -6 -14 -17 -25
-24 -25 -10 0 -13 -17 -13 -62 1 -63 -11 -132 -34 -197 -20 -57 -103 -216
-113 -216 -5 0 -11 11 -12 25 -5 36 -22 50 -24 20 0 -14 -1 -32 0 -40 2 -29
-22 -96 -49 -135 -53 -78 -239 -245 -273 -245 -24 0 -162 -70 -236 -120 -30
-21 -83 -63 -118 -94 l-63 -56 -37 16 c-43 18 -92 12 -115 -14 -17 -20 -28
-102 -12 -102 5 -1 20 -9 32 -19 l22 -19 -41 -83 c-56 -116 -56 -114 -78 -204
-13 -54 -20 -118 -21 -195 -2 -178 -19 -69 -25 163 -5 179 -4 190 16 230 12
23 36 57 53 76 33 39 22 53 -19 26 -31 -20 -38 -16 -25 16 5 13 20 58 32 99
12 41 31 95 43 120 23 50 90 150 130 193 31 33 32 37 9 37 -14 0 -14 2 2 20
18 20 18 20 41 -14 13 -18 29 -36 36 -38 18 -7 78 3 78 12 0 5 18 17 40 26 34
15 40 22 38 44 -2 18 -16 32 -53 52 -27 15 -58 28 -68 28 -17 0 -17 2 3 38 12
20 38 56 59 79 22 23 46 52 55 64 15 22 16 22 36 4 12 -11 36 -19 57 -19 29 0
42 7 70 40 19 21 46 51 60 65 35 36 25 55 -37 68 -81 17 -122 14 -159 -14
l-34 -24 -55 49 c-31 28 -64 50 -74 50 -17 0 -21 -9 -32 -75 -3 -16 -8 -42
-12 -57 -15 -62 29 -114 94 -110 23 2 32 -2 32 -13 0 -14 -16 -19 -52 -16 -12
2 -24 -11 -35 -36 -21 -46 -104 -172 -150 -229 -18 -23 -57 -89 -86 -147 -41
-83 -56 -104 -65 -95 -7 7 -12 20 -12 30 0 10 -5 18 -11 18 -9 0 -10 -23 -5
-80 6 -77 0 -120 -36 -255 -5 -22 -10 -125 -10 -230 l0 -190 -26 55 c-13 30
-29 63 -34 73 -38 77 -119 349 -139 467 -40 250 -41 363 -1 518 16 61 25 112
20 112 -5 0 -12 -8 -15 -17 -4 -10 -13 -24 -21 -32 -13 -13 -14 -2 -8 80 4 52
16 148 27 214 21 125 26 153 54 270 9 39 23 102 31 140 8 39 19 78 24 87 6 10
10 30 10 46 0 15 5 33 11 39 6 6 9 19 6 29 -4 18 -4 18 -11 -1 -13 -33 -28
-69 -37 -87 -5 -10 -9 -26 -9 -37 0 -10 -6 -24 -14 -30 -12 -10 -16 -5 -26 23
-8 26 -87 115 -102 116 -2 0 -40 6 -85 14 -107 17 -125 3 -83 -66 11 -18 20
-50 20 -71 0 -75 46 -127 113 -127 44 0 111 31 129 60 16 25 31 27 19 3 -10
-22 -27 -77 -36 -120 -9 -43 -21 -42 -29 2 -4 19 -11 35 -17 35 -6 0 -9 -45
-8 -122 2 -82 -5 -179 -19 -288 -12 -91 -25 -210 -29 -265 l-8 -100 -31 65
c-28 59 -118 208 -133 220 -13 11 -109 127 -125 151 -9 15 -30 29 -46 33 -19
3 -30 12 -30 22 0 12 7 15 25 11 28 -5 65 31 65 64 0 20 -51 109 -62 109 -13
0 -49 -45 -64 -80 -11 -26 -12 -41 -5 -57 14 -30 8 -29 -46 7 -24 17 -50 30
-58 30 -8 0 -16 4 -19 8 -3 5 -44 28 -91 51 -47 23 -85 46 -85 51 0 6 -6 10
-14 10 -19 0 -40 26 -26 35 24 15 10 64 -30 107 -39 42 -41 42 -55 23 -24 -31
-37 -90 -26 -118 6 -15 6 -28 0 -34 -6 -6 6 -15 33 -23 24 -8 45 -17 48 -20 3
-4 32 -17 65 -30 83 -33 90 -40 65 -57 -27 -19 -51 -68 -44 -87 9 -24 96 -22
117 2 10 10 17 24 17 30 0 14 14 15 38 3 9 -6 39 -20 66 -33 46 -21 83 -50
169 -134 118 -113 229 -299 276 -463 21 -71 35 -211 22 -211 -5 0 -17 12 -27
28 -10 15 -24 33 -31 40 -29 30 -33 49 -13 67 28 25 26 82 -3 117 -42 51 -89
68 -186 68 -135 0 -143 -8 -87 -81 18 -24 41 -65 51 -90 13 -37 25 -50 54 -64
38 -17 105 -13 117 6 10 17 22 9 39 -28 10 -21 26 -49 35 -63 57 -81 83 -148
121 -305 29 -121 119 -362 157 -423 24 -38 8 -34 -34 9 -21 22 -52 47 -69 56
-38 20 -74 47 -133 99 -57 50 -82 61 -75 33 5 -16 -4 -14 -65 16 -48 24 -94
60 -148 113 -136 135 -309 198 -461 168 -193 -38 -316 -130 -373 -276 -47
-123 -34 -285 36 -426 34 -68 139 -179 207 -218 90 -53 260 -105 347 -107 106
-2 93 -12 -265 -224 -19 -11 -71 -44 -117 -73 -74 -47 -188 -105 -303 -157
-79 -34 -149 -47 -265 -48 -94 -1 -128 3 -185 22 -224 73 -378 229 -435 441
-44 161 16 365 145 496 77 78 141 104 257 104 192 0 314 -82 347 -233 23 -107
-27 -227 -111 -264 -131 -57 -172 -91 -136 -114 22 -15 95 -10 145 9 63 24
119 75 151 137 24 44 26 61 26 150 0 86 -4 108 -25 155 -58 125 -151 190 -330
230 -55 12 -102 10 -189 -8 -48 -10 -122 -39 -130 -52 -3 -4 -19 -16 -35 -26
-17 -11 -53 -44 -81 -74 -123 -132 -181 -333 -155 -541 9 -77 19 -110 55 -184
79 -161 174 -263 312 -336 94 -50 181 -76 283 -85 66 -6 79 -11 102 -36 38
-40 76 -38 112 7 19 23 39 36 65 41 34 6 117 33 167 54 11 4 39 15 62 24 23 8
59 24 79 35 21 12 40 18 43 16 5 -6 -8 -17 -93 -78 -113 -82 -112 -81 -208
-80 -48 1 -88 -3 -88 -8 0 -5 10 -9 23 -9 12 0 30 -7 39 -14 16 -12 14 -15
-20 -29 -36 -16 -142 -50 -212 -67 -19 -5 -96 -11 -171 -13 l-136 -4 14 28
c25 50 -5 92 -87 122 -57 21 -67 21 -74 0 -6 -19 6 -106 19 -137 7 -17 1 -18
-114 -15 l-121 4 -6 35 c-8 42 -36 76 -72 85 -36 9 -52 23 -52 46 0 42 -60
150 -112 202 -86 86 -190 127 -318 127 -152 0 -348 -98 -457 -227 -50 -60
-109 -169 -124 -229 l-11 -44 -2197 0 c-1695 0 -2200 -3 -2209 -12 -9 -9 -12
-697 -12 -3035 l0 -3023 5195 0 5195 0 0 3035 0 3035 -311 0 -311 0 7 43 c4
23 12 51 18 62 6 11 10 48 9 83 -1 34 1 62 4 62 4 0 17 -11 30 -25 13 -14 32
-25 43 -25 23 0 71 20 71 30 0 3 16 25 35 47 54 64 36 83 -82 83 l-62 0 5 33
c6 36 20 77 41 126 9 19 16 45 17 58 1 23 3 24 48 18 42 -6 50 -4 72 18 14 14
27 42 31 63 3 22 13 52 22 67 13 25 13 31 1 43 -12 12 -26 13 -79 5 -71 -12
-104 -32 -128 -77 l-16 -30 -45 16 c-125 47 -136 45 -125 -15 4 -16 10 -51 14
-78 10 -59 34 -87 76 -87 36 0 51 -20 36 -48 -5 -9 -12 -44 -16 -77 -8 -75
-25 -164 -35 -190 -5 -11 -11 -28 -14 -38 -7 -22 -25 -18 -40 7 -8 14 -8 20 2
23 19 7 14 68 -9 96 -24 32 -79 50 -134 45 -44 -3 -42 2 -26 -85 14 -76 58
-112 118 -97 30 8 63 -50 63 -110 0 -25 -4 -46 -10 -46 -5 0 -10 8 -10 19 0
46 -73 101 -133 101 -32 0 -41 8 -113 98 -42 53 -95 116 -116 140 -61 67 -215
209 -303 278 -44 35 -85 68 -92 74 -7 5 -15 10 -18 10 -4 0 -26 14 -50 30 -25
17 -75 47 -112 66 -38 20 -79 42 -93 49 -34 18 -159 63 -245 87 -38 11 -77 24
-85 28 -56 27 -63 369 -9 472 5 10 9 23 9 29 0 12 75 163 91 183 165 204 303
304 504 364 156 47 238 57 337 42 256 -39 429 -166 519 -379 29 -68 32 -87 33
-176 0 -143 -26 -215 -113 -308 -43 -46 -144 -99 -221 -117 -83 -19 -102 -28
-98 -48 5 -25 38 -26 135 -2 121 31 160 50 226 110 71 64 100 113 126 210 54
193 -2 402 -157 592 -26 31 -170 137 -210 154 -241 100 -467 98 -699 -7 -24
-10 -45 -19 -48 -19 -2 0 -44 -25 -92 -57 -105 -67 -214 -175 -283 -280 -56
-86 -66 -84 -18 4 84 154 228 283 407 365 112 52 149 64 255 83 218 37 399 1
600 -122 78 -47 181 -152 240 -243 51 -80 69 -117 91 -195 9 -33 21 -74 26
-91 14 -47 11 -226 -5 -288 -27 -101 -64 -175 -131 -257 -59 -74 -149 -149
-213 -179 -113 -53 -310 -77 -416 -49 -158 41 -210 66 -286 139 -109 106 -140
179 -140 330 0 256 142 421 330 383 42 -8 103 -70 117 -120 23 -79 33 -121 33
-140 0 -11 7 -26 15 -33 13 -10 19 -9 36 6 34 31 49 70 49 129 0 104 -75 220
-176 271 -48 24 -69 29 -134 29 -43 0 -88 -5 -101 -12 -13 -6 -40 -18 -59 -26
-45 -20 -122 -100 -149 -154 -11 -23 -30 -77 -42 -119 -40 -145 -13 -334 66
-476 73 -130 225 -240 385 -277 181 -43 406 -20 536 54 71 41 232 207 286 295
50 81 92 194 114 305 18 89 17 139 -2 245 -23 130 -26 140 -35 146 -5 3 -9 14
-9 25 0 38 -89 193 -162 280 -33 41 -36 48 -22 60 69 57 41 162 -34 127 -31
-15 -40 -54 -22 -89 11 -19 8 -18 -26 7 -22 16 -41 31 -44 34 -10 10 -66 42
-124 70 -64 32 -62 37 23 43 54 4 112 -10 133 -31 16 -16 29 -15 43 4 11 15
14 15 36 1 13 -8 40 -18 59 -22 19 -4 52 -20 73 -36 20 -17 55 -38 77 -48 40
-18 40 -18 20 -36 -11 -10 -20 -27 -20 -38 0 -27 38 -87 56 -87 12 0 47 46 57
74 4 13 69 -28 85 -54 9 -15 10 -26 2 -41 -6 -11 -9 -28 -5 -38 6 -20 77 -81
94 -81 28 0 44 113 19 138 -9 9 -9 15 0 24 7 7 12 28 12 48 0 30 -5 39 -25 48
-40 18 -64 14 -90 -14 l-24 -26 -61 41 c-34 23 -66 41 -71 41 -5 0 -9 4 -9 8
0 5 -12 15 -26 22 -14 8 -30 22 -35 32 -8 15 -5 20 14 27 41 16 77 91 53 110
-16 13 -101 7 -120 -8 -19 -16 -26 -62 -14 -85 9 -16 7 -18 -7 -13 -9 4 -21 7
-26 7 -6 0 -9 8 -7 18 3 15 -7 17 -67 20 -38 2 -74 7 -79 13 -6 5 -28 9 -50 9
l-41 1 40 13 c22 8 61 19 88 26 26 7 50 17 53 21 3 5 12 9 21 9 18 0 135 76
178 117 86 81 120 154 119 258 -1 101 -25 157 -96 229 -68 67 -128 95 -216
103 -90 7 -159 -15 -220 -70 -61 -57 -82 -103 -88 -195 -5 -71 -3 -81 23 -132
111 -215 417 -157 363 69 -13 57 -29 74 -62 69 -21 -3 -23 -8 -21 -53 0 -27 4
-64 8 -81 6 -26 3 -34 -19 -51 -40 -32 -107 -38 -154 -14 -79 40 -116 165 -74
248 42 81 117 123 221 123 97 0 164 -44 207 -135 49 -104 20 -225 -77 -317
-117 -111 -222 -142 -679 -198 -134 -16 -137 -15 -155 26 -8 20 -24 38 -35 41
-25 7 -21 27 6 31 110 15 177 42 105 42 -28 0 -29 1 -28 51 1 48 -6 60 -38 72
-5 2 0 18 13 35 12 17 22 35 22 39 0 4 27 35 60 67 68 68 82 96 30 64 -10 -7
-22 -10 -25 -7 -8 8 63 218 83 245 13 18 27 23 58 24 50 0 81 27 89 77 4 21
11 48 18 61 18 38 -9 56 -72 47 -28 -4 -53 -11 -57 -16 -3 -5 -11 -9 -19 -9
-11 0 -12 7 -4 33 5 17 12 44 14 59 3 15 9 38 15 52 8 23 13 25 52 21 27 -4
49 -1 59 7 25 20 101 150 92 159 -14 12 -113 29 -137 23 -20 -5 -24 0 -35 38
-19 64 -36 85 -91 113 -81 41 -86 38 -93 -57z m-2268 -597 c8 -5 9 -11 3 -15
-5 -3 -15 1 -22 9 -14 16 -3 20 19 6z m2151 -602 c0 -3 -16 -13 -35 -22 -42
-20 -43 -16 -8 23 19 22 29 27 35 18 4 -7 8 -16 8 -19z m-51 -90 c-6 -12 -9
-29 -6 -39 4 -14 -4 -20 -39 -29 -50 -13 -94 -14 -94 -3 1 11 41 38 70 47 14
4 33 16 43 26 24 26 41 25 26 -2z m-2059 -654 c0 -31 -3 -35 -32 -40 -42 -8
-59 -21 -92 -69 -29 -43 -33 -74 -11 -82 11 -5 8 -16 -17 -60 -27 -49 -30 -62
-26 -119 5 -89 56 -164 147 -216 86 -51 228 -69 321 -42 178 53 272 179 256
344 l-7 69 30 0 c16 0 32 -4 36 -9 3 -6 38 -26 78 -47 90 -45 98 -52 95 -78
-3 -17 4 -22 45 -29 40 -8 59 -20 113 -73 35 -35 64 -67 64 -72 0 -9 -48 -24
-117 -37 -26 -5 -32 -4 -27 8 3 9 -6 23 -22 36 -32 25 -92 28 -133 7 -55 -29
-136 -145 -129 -184 3 -13 12 -16 41 -14 22 2 54 -4 74 -13 78 -37 159 -2 188
81 12 35 17 40 57 47 23 4 63 6 88 5 l45 -3 47 -84 c26 -47 45 -88 43 -92 -3
-3 -24 -4 -48 -2 -49 6 -404 -31 -492 -51 -33 -8 -107 -28 -165 -46 -104 -31
-106 -31 -205 -19 -139 16 -207 34 -303 80 -273 131 -387 464 -233 681 36 51
119 109 194 135 87 31 97 30 97 -12z m290 -25 c30 -16 73 -47 95 -69 l40 -42
-33 3 c-19 1 -36 6 -38 10 -3 4 -20 8 -38 8 -19 0 -51 7 -72 16 -20 9 -52 14
-69 12 l-31 -4 14 29 c8 16 12 41 9 57 l-6 28 37 -10 c20 -6 62 -23 92 -38z
m-100 -101 c25 -7 49 -15 53 -19 6 -5 -6 -36 -30 -79 -2 -2 -17 12 -35 32 -19
20 -51 41 -75 49 -24 7 -43 15 -43 18 0 11 88 10 130 -1z m240 -62 c31 -16 47
-33 56 -57 21 -57 17 -133 -10 -193 -73 -167 -337 -222 -491 -103 -89 69 -105
98 -105 187 0 36 7 58 33 95 35 53 65 67 152 68 60 1 119 -33 134 -77 10 -27
12 -28 58 -22 26 4 58 14 71 22 24 15 46 59 36 74 -6 10 3 29 15 29 4 0 27
-10 51 -23z m843 -787 c99 -113 214 -225 266 -258 14 -9 28 -19 31 -23 8 -10
179 -133 325 -233 268 -184 301 -207 340 -241 l40 -34 -232 -1 c-128 0 -233 3
-233 7 0 3 7 14 15 23 9 10 18 33 21 52 5 31 1 41 -45 93 -28 32 -51 62 -51
67 0 4 -7 8 -15 8 -8 0 -26 -23 -41 -51 -28 -56 -34 -122 -14 -159 6 -12 10
-23 8 -25 -2 -2 -35 -7 -73 -10 -60 -5 -68 -4 -53 7 9 8 19 30 23 49 7 37 -10
65 -52 87 -47 25 -185 3 -191 -31 -2 -9 15 -38 38 -65 l42 -47 -82 -3 -81 -3
-66 71 c-52 56 -82 79 -147 110 -107 52 -164 63 -304 58 -117 -3 -117 -3 -212
-51 -120 -61 -180 -102 -215 -149 l-29 -38 -123 0 -123 0 0 25 c0 33 55 176
92 238 15 26 28 50 28 53 0 17 112 163 164 214 214 210 462 303 790 297 l128
-3 31 -34z m277 -35 c66 -23 225 -96 275 -128 101 -64 182 -120 245 -171 88
-72 253 -234 329 -326 30 -36 61 -73 69 -82 19 -23 12 -46 -8 -27 -73 70 -328
259 -545 404 -221 148 -479 355 -442 355 2 0 37 -11 77 -25z m1286 -241 c-3
-9 -6 -20 -6 -25 0 -5 -4 -9 -9 -9 -14 0 -20 38 -7 44 21 9 28 6 22 -10z
m-4694 -142 c116 -55 184 -191 164 -327 l-7 -45 -405 0 c-465 0 -426 -11 -369
108 40 83 123 177 194 219 25 15 77 37 116 50 94 31 236 29 307 -5z m1555
-285 c-53 -74 -70 -90 -93 -85 -12 2 4 23 57 79 41 42 76 75 78 73 2 -2 -17
-32 -42 -67z m1226 8 c62 -16 117 -42 157 -74 l25 -21 -275 1 -275 0 44 39
c25 21 48 37 51 35 4 -2 18 2 33 10 51 26 160 31 240 10z m-1404 -51 c-44 -44
-47 -45 -99 -42 l-54 3 75 37 c126 62 138 62 78 2z m348 24 c-3 -8 -6 -5 -6 6
-1 11 2 17 5 13 3 -3 4 -12 1 -19z m-7 -53 c0 -8 -4 -15 -10 -15 -5 0 -7 7 -4
15 4 8 8 15 10 15 2 0 4 -7 4 -15z m-6545 -827 c-43 -144 -54 -204 -55 -297 0
-51 5 -112 11 -135 53 -201 99 -286 219 -406 84 -84 140 -120 275 -176 l90
-37 155 -1 c163 0 221 11 340 65 185 85 353 278 421 484 15 45 36 75 25 35 -4
-14 -11 -41 -15 -60 -11 -50 -73 -180 -121 -249 -35 -53 -133 -141 -195 -178
-195 -114 -353 -149 -550 -124 -229 30 -418 146 -544 335 -55 83 -70 113 -105
219 -45 135 -45 330 0 463 20 62 67 119 49 62z m814 -52 c7 -5 7 -15 -1 -31
-8 -19 -19 -25 -42 -25 -75 -1 -182 -35 -251 -79 -40 -26 -54 -25 -77 1 -19
22 -19 23 14 51 44 38 133 80 188 88 49 8 153 5 169 -5z m279 -192 c13 -35 13
-49 3 -87 -11 -39 -18 -47 -55 -61 -23 -9 -52 -16 -64 -16 -19 0 -21 3 -12 19
5 11 23 22 39 26 71 15 100 69 62 116 -16 20 -26 22 -85 21 -53 -2 -66 1 -66
13 0 16 1 17 65 32 55 13 93 -8 113 -63z m-258 -24 c24 -44 4 -134 -42 -185
-25 -30 -37 -35 -72 -35 -47 1 -66 13 -84 53 -18 40 -15 43 13 13 17 -18 34
-26 58 -26 96 0 151 89 99 160 -29 38 -30 65 -2 50 11 -6 24 -19 30 -30z
m-122 -12 c7 -7 12 -25 12 -42 l0 -30 -30 29 c-16 16 -30 35 -30 42 0 16 32
17 48 1z m-121 -26 c12 -7 33 -55 33 -73 0 -6 -13 3 -30 19 -39 39 -41 78 -3
54z m-119 -44 c5 -7 13 -29 17 -48 4 -19 14 -55 22 -79 10 -31 12 -46 4 -54
-8 -8 -11 -5 -11 10 0 12 -4 25 -10 28 -5 3 -10 19 -10 34 0 38 -34 71 -73 71
-18 0 -38 -5 -45 -12 -19 -19 -40 7 -26 30 18 28 113 42 132 20z m2439 -911
c14 -23 46 -47 112 -82 113 -60 141 -92 141 -162 0 -27 -9 -76 -20 -108 -22
-64 -26 -167 -10 -237 5 -24 17 -97 25 -163 8 -66 22 -158 30 -205 19 -113 19
-218 -1 -266 -24 -58 -32 -29 -45 167 -13 188 -21 224 -44 215 -18 -7 -20 15
-2 32 9 10 12 63 12 195 0 221 -1 222 -127 284 -90 44 -124 71 -139 110 -12
33 -11 99 2 148 11 39 38 105 44 105 2 0 12 -15 22 -33z m4683 7 c27 -50 50
-54 295 -54 209 0 229 -2 270 -21 49 -23 73 -51 98 -116 22 -57 47 -218 46
-300 l0 -68 -19 43 c-40 89 -92 153 -160 195 -33 21 -50 22 -280 27 -175 4
-253 10 -272 19 -27 14 -68 91 -68 128 0 45 53 173 70 173 4 0 13 -12 20 -26z
m-6687 -272 c86 -48 114 -83 122 -147 9 -71 -1 -135 -31 -202 -14 -29 -26 -53
-27 -53 -1 0 -2 30 -2 68 0 60 -3 70 -30 101 -16 18 -47 42 -67 52 -56 28 -88
77 -88 131 0 43 18 103 36 121 4 4 14 -3 21 -17 7 -13 37 -37 66 -54z m1249 7
c25 -6 80 -9 137 -5 158 8 208 -11 252 -96 18 -34 19 -62 19 -356 0 -351 -1
-348 59 -336 l31 7 -31 -69 c-37 -83 -61 -111 -108 -124 -20 -5 -119 -10 -221
-10 -171 0 -216 -4 -278 -24 -22 -7 -23 -6 -17 16 4 12 20 50 35 83 44 95 54
98 302 105 113 3 209 8 213 12 4 3 1 71 -5 150 -7 78 -14 175 -17 213 -3 39
-9 74 -14 80 -5 5 -9 20 -9 33 0 34 -26 74 -68 102 -33 23 -45 25 -188 28
-149 4 -154 5 -179 29 -22 22 -25 34 -25 90 0 64 8 92 39 126 15 18 16 17 23
-12 7 -25 16 -32 50 -42z m2637 27 c9 -10 37 -29 62 -42 51 -25 109 -88 109
-117 0 -10 4 -26 9 -35 5 -10 4 -39 -3 -72 -12 -53 -15 -64 -40 -122 -15 -37
-29 -36 -21 1 3 16 1 47 -5 70 -9 33 -23 49 -80 90 -94 69 -106 90 -102 176 2
37 43 107 50 85 2 -8 12 -23 21 -34z m423 -20 c13 -3 85 -7 162 -11 152 -6
192 -17 223 -61 35 -50 42 -94 42 -264 0 -90 5 -235 12 -321 10 -126 10 -168
0 -213 -12 -56 -40 -121 -47 -113 -2 2 0 53 5 113 15 165 3 540 -18 583 -35
73 -87 89 -293 90 -117 1 -129 3 -153 24 -36 31 -44 99 -20 165 27 71 36 79
51 43 8 -18 22 -32 36 -35z m1931 44 c3 -10 27 -32 53 -49 80 -48 112 -79 130
-128 15 -40 16 -54 6 -114 -7 -38 -16 -77 -21 -87 -5 -9 -14 -28 -19 -42 -10
-23 -11 -20 -11 21 -1 65 -23 101 -86 145 -107 73 -129 128 -91 227 19 50 31
59 39 27z m-370 -22 c19 -18 59 -48 88 -66 34 -21 60 -45 69 -65 22 -47 17
-160 -9 -229 -26 -68 -45 -87 -36 -35 13 69 -11 117 -85 167 -19 13 -50 37
-67 54 -30 27 -33 35 -33 88 0 49 20 118 34 118 2 0 20 -15 39 -32z m-5493
-18 c6 -22 30 -62 53 -89 23 -27 62 -73 87 -102 25 -29 63 -74 85 -99 22 -25
60 -69 84 -98 24 -29 49 -52 56 -52 7 0 15 -10 19 -22 3 -13 27 -48 53 -79 88
-104 103 -124 128 -175 14 -28 28 -67 31 -86 7 -38 -16 -131 -40 -163 -14 -19
-15 -19 -21 10 -10 50 -55 130 -99 178 -23 25 -57 65 -76 89 -19 24 -42 52
-51 63 -19 21 -66 77 -139 166 -25 29 -60 70 -77 89 -43 46 -147 180 -161 207
-24 44 -13 118 26 181 20 32 30 28 42 -18z m2721 -49 c110 -63 125 -98 93
-210 -27 -91 -26 -88 -31 -71 -10 29 -47 60 -107 91 -34 17 -74 44 -90 61 -26
29 -28 36 -23 87 2 31 13 73 23 93 l17 37 21 -22 c12 -13 55 -42 97 -66z m368
70 c6 -10 40 -34 77 -52 76 -39 114 -78 114 -120 0 -16 -9 -62 -19 -102 -11
-39 -21 -83 -24 -97 -3 -21 -5 -19 -6 8 -2 60 -27 91 -96 122 -87 39 -108 72
-101 157 8 91 32 128 55 84z m1585 -75 c67 -51 84 -123 45 -193 -28 -52 -34
-56 -58 -48 -28 9 -92 78 -108 117 -24 56 -11 158 26 202 13 15 16 13 36 -17
13 -18 39 -46 59 -61z m-4210 57 c8 -16 32 -43 55 -61 58 -47 74 -83 69 -154
-3 -43 -10 -65 -26 -80 l-22 -22 -23 22 c-13 12 -31 22 -40 22 -9 0 -17 5 -17
11 0 6 -15 29 -34 50 -41 45 -53 95 -36 152 13 45 38 87 51 87 5 0 15 -12 23
-27z m4689 -42 c30 -17 69 -69 87 -116 16 -41 40 -190 40 -245 0 -25 -5 -52
-10 -60 -7 -11 -10 -3 -10 30 -1 85 -49 174 -113 207 -38 19 -113 21 -158 3
-19 -7 -55 -34 -81 -59 -27 -25 -48 -40 -48 -33 0 6 15 51 33 98 63 170 158
234 260 175z m-6053 11 c0 -4 -18 -6 -40 -4 -22 2 -40 6 -40 8 0 2 18 4 40 4
22 0 40 -3 40 -8z m7235 -737 c8 -137 18 -293 21 -346 5 -64 2 -114 -6 -150
-15 -64 -56 -149 -71 -149 -18 0 -6 974 12 1020 l14 35 7 -80 c4 -44 14 -192
23 -330z m-3098 343 c-3 -7 -5 -2 -5 12 0 14 2 19 5 13 2 -7 2 -19 0 -25z
m-4122 -8 c3 -5 1 -10 -4 -10 -6 0 -11 5 -11 10 0 6 2 10 4 10 3 0 8 -4 11
-10z m908 -213 c9 -21 26 -52 38 -68 31 -43 79 -146 79 -168 0 -27 -26 -85
-45 -101 -13 -10 -26 -11 -64 -2 -31 7 -60 8 -80 2 -17 -5 -31 -6 -31 -3 0 2
14 24 31 48 l31 43 -21 67 c-33 102 -31 214 5 307 l29 73 6 -80 c3 -44 13 -97
22 -118z m2801 43 c9 -63 21 -134 26 -157 15 -66 12 -205 -5 -227 -8 -11 -15
-18 -16 -15 0 2 -4 45 -9 94 -5 50 -12 122 -16 160 -4 39 -10 75 -14 80 -4 6
-5 54 -2 109 2 54 8 92 12 85 4 -8 15 -66 24 -129z m431 83 c3 -27 11 -79 17
-118 6 -38 11 -110 11 -160 1 -98 -10 -130 -58 -175 -24 -23 -36 -25 -141 -30
-63 -3 -114 -2 -114 2 0 25 47 121 71 144 24 23 40 28 103 33 41 4 78 10 83
15 4 4 7 82 6 172 -1 158 9 215 22 117z m1322 -30 c-3 -10 -5 -4 -5 12 0 17 2
24 5 18 2 -7 2 -21 0 -30z m2384 -77 c-49 -101 -98 -152 -201 -209 -41 -23
-82 -46 -91 -52 -9 -5 -38 -22 -65 -37 -27 -14 -66 -38 -88 -53 -21 -14 -40
-24 -42 -23 -5 6 34 124 55 166 30 59 64 95 112 119 64 31 137 63 144 63 15 0
164 92 185 116 41 43 37 4 -9 -90z m-2350 -18 c27 -90 73 -184 93 -191 9 -4
53 -2 98 3 46 6 138 10 205 10 141 0 151 5 198 98 15 28 28 52 30 52 5 0 -38
-167 -56 -216 -11 -29 -33 -67 -49 -84 l-28 -30 -190 0 c-140 0 -200 -4 -231
-15 -22 -8 -41 -11 -42 -7 0 4 0 29 1 55 2 49 -7 98 -41 224 -17 63 -26 173
-15 173 2 0 14 -33 27 -72z m-2850 -84 c-46 -164 -109 -244 -223 -283 -31 -11
-66 -25 -78 -31 -12 -6 -24 -10 -26 -7 -7 7 73 215 95 246 11 15 60 49 109 75
50 26 102 61 118 77 15 16 29 28 30 26 2 -1 -10 -48 -25 -103z m958 -76 c-40
-126 -82 -173 -186 -209 -31 -10 -58 -19 -60 -19 -15 0 57 177 82 200 21 20
177 108 183 104 2 -1 -7 -35 -19 -76z m-2439 -855 c0 -10 -9 -29 -19 -43 l-19
-24 11 42 c11 42 27 57 27 25z m-860 -23 c0 -5 -10 -10 -22 -9 -22 0 -22 1 -3
9 11 5 21 9 23 9 1 1 2 -3 2 -9z m1813 -7 c-7 -2 -19 -2 -25 0 -7 3 -2 5 12 5
14 0 19 -2 13 -5z m1597 -7 c0 -7 3 -29 6 -47 l7 -34 -22 27 c-15 18 -20 35
-16 48 7 23 25 27 25 6z m-300 -120 c0 -8 -4 -18 -10 -21 -5 -3 -10 3 -10 14
0 12 5 21 10 21 6 0 10 -6 10 -14z m507 -18 c-3 -7 -5 -2 -5 12 0 14 2 19 5
13 2 -7 2 -19 0 -25z m1619 5 c-10 -10 -19 5 -10 18 6 11 8 11 12 0 2 -7 1
-15 -2 -18z m-1010 -25 c-18 -26 -22 -17 -5 14 6 11 13 17 16 15 3 -3 -2 -16
-11 -29z m-776 2 c0 -5 -4 -10 -10 -10 -5 0 -10 5 -10 10 0 6 5 10 10 10 6 0
10 -4 10 -10z m-1010 -910 c52 0 80 -11 80 -32 0 -5 -10 -3 -22 3 -13 7 -39
14 -58 16 -56 5 -80 13 -80 25 0 9 3 9 12 0 7 -7 37 -12 68 -12z m715 -10 c-7
-11 -154 -5 -165 6 -5 5 30 8 81 6 49 -2 87 -7 84 -12z m573 -8 c2 -7 -2 -10
-11 -7 -12 5 -40 9 -104 14 -7 1 -13 4 -13 9 0 12 123 -2 128 -16z m1429 2
c-7 -7 -37 7 -37 17 0 6 9 5 21 -1 11 -7 19 -14 16 -16z m138 16 c3 -5 -1 -10
-9 -10 -9 0 -16 5 -16 10 0 6 4 10 9 10 6 0 13 -4 16 -10z m865 0 c35 0 50 -4
54 -16 5 -12 2 -15 -11 -9 -10 4 -42 9 -70 12 -29 3 -53 10 -53 15 0 6 7 7 16
4 9 -3 37 -6 64 -6z m271 -16 c10 -12 8 -13 -13 -5 -14 5 -28 7 -31 4 -7 -7
-67 7 -67 15 0 13 99 0 111 -14z m-6199 -169 l-6 -30 -7 27 c-4 15 -4 65 -1
110 l7 83 6 -80 c4 -44 4 -93 1 -110z m1248 143 c-1 -35 -3 -40 -11 -25 -10
17 -5 67 6 67 3 0 5 -19 5 -42z m136 -29 c-8 -72 -22 -71 -21 1 0 59 2 67 13
53 7 -10 11 -34 8 -54z m1012 52 c3 -8 -1 -12 -9 -9 -7 2 -15 10 -17 17 -3 8
1 12 9 9 7 -2 15 -10 17 -17z m152 9 c0 -5 -9 -10 -20 -10 -11 0 -20 5 -20 10
0 6 9 10 20 10 11 0 20 -4 20 -10z m495 0 c3 -5 2 -10 -4 -10 -5 0 -13 5 -16
10 -3 6 -2 10 4 10 5 0 13 -4 16 -10z m220 0 c6 -10 -112 -7 -122 4 -4 3 21 6
55 6 33 0 64 -4 67 -10z m363 -8 c6 -18 -15 -14 -22 4 -4 10 -1 14 6 12 6 -2
14 -10 16 -16z m152 8 c0 -5 -9 -10 -20 -10 -11 0 -20 5 -20 10 0 6 9 10 20
10 11 0 20 -4 20 -10z m667 4 c-11 -11 -126 -14 -150 -4 -15 6 5 9 67 9 49 1
86 -2 83 -5z m133 -9 c16 -19 1 -19 -24 0 -16 12 -17 15 -4 15 8 0 21 -7 28
-15z m215 5 c7 -12 -34 -12 -90 -1 -38 8 -37 9 22 10 34 0 65 -3 68 -9z m379
1 c5 -8 -84 -3 -93 5 -2 2 16 4 42 4 25 0 48 -4 51 -9z m230 -6 c3 -8 2 -15
-3 -15 -5 0 -14 7 -21 15 -10 12 -10 15 3 15 8 0 17 -7 21 -15z m120 0 c3 -8
2 -15 -3 -15 -5 0 -14 7 -21 15 -10 12 -10 15 3 15 8 0 17 -7 21 -15z m114 -3
c2 -7 -2 -10 -12 -6 -9 3 -16 11 -16 16 0 13 23 5 28 -10z m123 1 c13 -15 12
-15 -8 -4 -24 12 -29 21 -14 21 5 0 15 -7 22 -17z m869 7 c0 -5 -4 -10 -9 -10
-6 0 -13 5 -16 10 -3 6 1 10 9 10 9 0 16 -4 16 -10z m130 0 c0 -5 -4 -10 -9
-10 -6 0 -13 5 -16 10 -3 6 1 10 9 10 9 0 16 -4 16 -10z m231 -6 c12 -15 11
-16 -11 -9 -13 4 -47 11 -75 15 l-50 8 61 1 c46 1 65 -3 75 -15z m130 -1 c13
-15 12 -15 -8 -4 -24 12 -29 21 -14 21 5 0 15 -7 22 -17z m124 6 c11 -17 -1
-21 -15 -4 -8 9 -8 15 -2 15 6 0 14 -5 17 -11z m252 -128 c60 -61 34 -57 -29
6 -35 33 -73 69 -86 79 -13 11 -28 28 -34 38 -11 21 95 -66 149 -123z m24 123
c12 -14 11 -16 -5 -13 -11 2 -21 10 -24 17 -5 17 13 15 29 -4z m224 5 c11 -17
2 -18 -19 -3 -17 12 -17 14 -4 14 9 0 20 -5 23 -11z m130 1 c3 -5 -1 -10 -9
-10 -8 0 -18 5 -21 10 -3 6 1 10 9 10 8 0 18 -4 21 -10z m150 0 c3 -5 -1 -10
-9 -10 -8 0 -18 5 -21 10 -3 6 1 10 9 10 8 0 18 -4 21 -10z m-6903 -117 c2
-56 -4 -84 -17 -72 -7 7 -9 56 -6 129 2 57 4 61 12 35 5 -16 10 -58 11 -92z
m588 81 c0 -21 -4 -33 -10 -29 -17 10 -11 65 7 65 2 0 3 -16 3 -36z m140 -4
c0 -15 -3 -35 -6 -44 -12 -31 -19 -15 -16 34 4 52 22 60 22 10z m-2180 -42 c0
-51 -3 -68 -10 -58 -16 24 -11 130 6 130 2 0 4 -33 4 -72z m139 9 c-1 -88 -16
-101 -17 -14 0 45 3 75 9 72 5 -4 9 -30 8 -58z m1773 -24 c2 -39 0 -75 -5 -79
-17 -17 -22 13 -17 114 4 75 19 51 22 -35z m-1249 -10 c-3 -40 -10 -70 -14
-67 -13 8 -11 101 3 124 7 10 13 18 14 17 1 -1 0 -35 -3 -74z m127 -23 c0 -16
-4 -31 -9 -34 -5 -3 -8 12 -7 33 1 45 16 45 16 1z m4607 34 c-3 -3 -12 -4 -19
-1 -8 3 -5 6 6 6 11 1 17 -2 13 -5z m2307 -79 c3 -9 0 -15 -9 -15 -8 0 -15 7
-15 15 0 8 4 15 9 15 5 0 11 -7 15 -15z m-4891 -22 c-13 -2 -35 -2 -50 0 -16
2 -5 4 22 4 28 0 40 -2 28 -4z m1174 1 c-3 -3 -12 -4 -19 -1 -8 3 -5 6 6 6 11
1 17 -2 13 -5z m76 -1 c-7 -2 -19 -2 -25 0 -7 3 -2 5 12 5 14 0 19 -2 13 -5z
m1385 0 c-10 -2 -28 -2 -40 0 -13 2 -5 4 17 4 22 1 32 -1 23 -4z m355 0 c-7
-2 -19 -2 -25 0 -7 3 -2 5 12 5 14 0 19 -2 13 -5z m434 1 c-3 -3 -12 -4 -19
-1 -8 3 -5 6 6 6 11 1 17 -2 13 -5z m56 -1 c-7 -2 -21 -2 -30 0 -10 3 -4 5 12
5 17 0 24 -2 18 -5z m180 0 c-7 -2 -21 -2 -30 0 -10 3 -4 5 12 5 17 0 24 -2
18 -5z"/>
<path d="M7633 7728 c-62 -69 -56 -169 8 -130 10 7 28 12 40 12 35 0 58 19 65
54 13 72 -65 116 -113 64z"/>
<path d="M8400 9648 c-54 -15 -144 -84 -164 -124 -9 -20 -15 -39 -12 -41 7 -7
66 36 66 48 0 20 114 61 181 67 61 4 73 1 135 -29 85 -42 169 -123 210 -204
73 -141 82 -353 24 -560 -6 -22 -14 -50 -17 -63 -3 -12 -9 -25 -14 -28 -5 -3
-9 -14 -9 -25 0 -20 -16 -54 -37 -77 -18 -19 -16 -37 1 -19 19 18 56 84 56 98
0 6 8 23 19 37 26 37 59 136 76 227 60 314 -74 605 -318 691 -45 16 -145 17
-197 2z"/>
<path d="M6698 9509 c-16 -6 -28 -15 -28 -21 0 -5 16 -30 36 -54 44 -53 81
-59 113 -18 24 31 26 53 8 78 -16 22 -90 30 -129 15z"/>
<path d="M9398 9276 c-85 -36 -93 -110 -16 -161 34 -22 44 -25 69 -16 30 10
139 110 139 127 0 12 -91 50 -135 57 -16 2 -42 -1 -57 -7z"/>
<path d="M8982 9207 c-13 -16 21 -128 46 -150 35 -32 65 -30 107 6 l39 34 -15
38 c-8 23 -26 45 -44 55 -41 23 -120 33 -133 17z"/>
<path d="M7893 9100 c-37 -22 -67 -73 -58 -100 3 -10 24 -35 47 -55 36 -33 45
-37 80 -32 46 6 67 21 84 62 7 17 26 47 43 69 17 21 31 43 31 48 0 33 -176 39
-227 8z"/>
<path d="M9448 8895 c-17 -9 -31 -28 -36 -48 -7 -27 -13 -32 -43 -35 -71 -5
-79 -10 -79 -47 0 -37 28 -65 66 -65 23 0 34 17 34 55 0 52 68 55 87 4 10 -27
15 -29 62 -29 49 0 51 1 51 28 0 29 -29 63 -62 75 -10 3 -18 19 -20 39 -3 38
-20 44 -60 23z"/>
<path d="M7971 8594 c0 -84 1 -87 30 -115 35 -33 70 -37 118 -13 58 29 64 61
21 126 -22 33 -44 51 -80 67 -85 37 -89 34 -89 -65z"/>
<path d="M7586 8088 c-8 -13 -21 -45 -28 -71 -11 -44 -11 -52 7 -85 31 -58 98
-57 135 2 19 32 20 37 6 68 -15 35 -81 108 -96 108 -5 0 -16 -10 -24 -22z"/>
</g>
</svg>
